<?xml version="1.0" encoding="utf-8"?>
<!-- Generator: Adobe Illustrator 21.0.0, SVG Export Plug-In . SVG Version: 6.00 Build 0)  -->
<svg version="1.1" id="Layer_1" xmlns="http://www.w3.org/2000/svg" xmlns:xlink="http://www.w3.org/1999/xlink" x="0px" y="0px"
	 viewBox="0 0 256 256" enable-background="new 0 0 256 256" xml:space="preserve">
<rect fill="#FFD34C" width="256" height="256"/>
<g display="none">
	<path display="inline" fill="#9B5C8F" d="M24.399,194.189H85.19c3.848,0,6.961,3.113,6.961,6.961v23.205
		c0,3.848-3.114,6.962-6.961,6.962h-21.8l2.993,7.327l-13.161-7.327H24.429c-3.847,0-6.961-3.114-6.961-6.962V201.15
		C17.437,197.334,20.552,194.189,24.399,194.189z"/>
	<path display="inline" fill="#FFFFFF" d="M21.193,200.509c0.428-0.58,1.069-0.885,1.924-0.946c1.557-0.122,2.442,0.61,2.656,2.199
		c0.946,6.381,1.985,11.785,3.084,16.212l6.687-12.732c0.611-1.16,1.375-1.77,2.29-1.831c1.344-0.092,2.167,0.763,2.503,2.565
		c0.763,4.06,1.741,7.511,2.901,10.441c0.793-7.755,2.137-13.344,4.03-16.793c0.458-0.855,1.13-1.283,2.015-1.343
		c0.703-0.063,1.344,0.151,1.924,0.609c0.58,0.459,0.885,1.038,0.946,1.742c0.031,0.548-0.061,1.006-0.305,1.465
		c-1.191,2.197-2.167,5.893-2.961,11.021c-0.764,4.977-1.039,8.855-0.855,11.633c0.061,0.764-0.061,1.436-0.367,2.016
		c-0.366,0.672-0.916,1.038-1.618,1.099c-0.794,0.062-1.618-0.306-2.412-1.13c-2.84-2.9-5.099-7.236-6.748-13.007
		c-1.985,3.909-3.45,6.839-4.397,8.793c-1.801,3.451-3.328,5.223-4.61,5.313c-0.824,0.062-1.526-0.641-2.137-2.105
		c-1.557-4-3.236-11.726-5.038-23.176C20.613,201.762,20.766,201.059,21.193,200.509z"/>
	<path display="inline" fill="#FFFFFF" d="M86.838,205.303c-1.099-1.923-2.717-3.083-4.885-3.541
		c-0.58-0.123-1.13-0.185-1.648-0.185c-2.932,0-5.313,1.527-7.175,4.58c-1.589,2.597-2.382,5.466-2.382,8.611
		c0,2.35,0.489,4.365,1.465,6.045c1.1,1.924,2.718,3.084,4.886,3.542c0.58,0.122,1.13,0.184,1.649,0.184
		c2.961,0,5.343-1.527,7.175-4.58c1.587-2.625,2.382-5.496,2.382-8.642C88.305,208.936,87.816,206.951,86.838,205.303
		L86.838,205.303z M82.992,213.761c-0.427,2.016-1.191,3.512-2.321,4.519c-0.885,0.794-1.709,1.13-2.473,0.978
		c-0.733-0.153-1.344-0.794-1.802-1.984c-0.366-0.947-0.549-1.894-0.549-2.779c0-0.764,0.061-1.526,0.214-2.229
		c0.274-1.252,0.793-2.474,1.618-3.635c1.008-1.495,2.077-2.105,3.176-1.892c0.733,0.151,1.344,0.794,1.802,1.984
		c0.366,0.946,0.55,1.893,0.55,2.778C83.206,212.295,83.114,213.058,82.992,213.761L82.992,213.761z"/>
	<path display="inline" fill="#FFFFFF" d="M67.695,205.303c-1.1-1.923-2.748-3.083-4.886-3.541c-0.58-0.123-1.13-0.185-1.649-0.185
		c-2.931,0-5.313,1.527-7.175,4.58c-1.588,2.597-2.382,5.466-2.382,8.611c0,2.35,0.489,4.365,1.466,6.045
		c1.099,1.924,2.717,3.084,4.885,3.542c0.58,0.122,1.13,0.184,1.648,0.184c2.961,0,5.344-1.527,7.175-4.58
		c1.588-2.625,2.382-5.496,2.382-8.642C69.161,208.936,68.672,206.951,67.695,205.303L67.695,205.303z M63.847,213.761
		c-0.427,2.016-1.19,3.512-2.32,4.519c-0.885,0.794-1.71,1.13-2.474,0.978c-0.732-0.153-1.343-0.794-1.801-1.984
		c-0.366-0.947-0.55-1.894-0.55-2.779c0-0.764,0.063-1.526,0.214-2.229c0.274-1.252,0.793-2.474,1.618-3.635
		c1.007-1.495,2.076-2.105,3.176-1.892c0.733,0.151,1.344,0.794,1.802,1.984c0.366,0.946,0.549,1.893,0.549,2.778
		C64.061,212.295,64,213.058,63.847,213.761L63.847,213.761z"/>
	<g display="inline">
		<g>
			<path d="M99.877,205.028c-2.046,2.015-3.054,4.58-3.054,7.693c0,3.329,1.009,6.047,3.023,8.092
				c2.015,2.047,4.641,3.084,7.908,3.084c0.947,0,2.016-0.153,3.176-0.488v-4.946c-1.069,0.306-1.985,0.458-2.779,0.458
				c-1.619,0-2.901-0.551-3.878-1.618c-0.977-1.099-1.465-2.564-1.465-4.428c0-1.74,0.489-3.176,1.435-4.274
				c0.978-1.129,2.168-1.68,3.634-1.68c0.946,0,1.955,0.152,3.054,0.458v-4.946c-1.007-0.274-2.138-0.396-3.329-0.396
				C104.487,202.006,101.922,203.013,99.877,205.028z M121.066,202.006c-2.809,0-5.007,0.945-6.594,2.809
				c-1.588,1.861-2.352,4.488-2.352,7.847c0,3.634,0.794,6.412,2.352,8.336c1.557,1.923,3.847,2.9,6.839,2.9
				c2.901,0,5.13-0.978,6.687-2.9c1.557-1.924,2.352-4.642,2.352-8.122s-0.795-6.167-2.383-8.061
				C126.349,202.951,124.058,202.006,121.066,202.006z M123.479,217.882c-0.549,0.856-1.374,1.283-2.413,1.283
				c-0.977,0-1.709-0.427-2.229-1.283c-0.519-0.855-0.764-2.564-0.764-5.16c0-3.999,1.007-5.983,3.054-5.983
				c2.137,0,3.236,2.016,3.236,6.075C124.334,215.317,124.028,217.027,123.479,217.882z M145.431,202.586l-1.098,4.671
				c-0.275,1.191-0.551,2.412-0.795,3.664l-0.61,3.236c-0.581-3.236-1.373-7.084-2.382-11.571h-7.083l-2.657,20.793h5.313
				l1.436-14.32l3.633,14.32h3.786l3.48-14.29l1.496,14.29h5.557l-2.809-20.793H145.431L145.431,202.586z M170.866,202.586
				l-1.1,4.671c-0.275,1.191-0.55,2.412-0.795,3.664l-0.61,3.236c-0.579-3.236-1.374-7.084-2.382-11.571h-7.083l-2.657,20.793h5.313
				l1.436-14.32l3.633,14.32h3.786l3.451-14.289l1.495,14.289h5.558l-2.809-20.793H170.866z M188.146,215.165h4.977v-4.306h-4.977
				v-3.816h5.74v-4.427h-11.357v20.793h11.389v-4.428h-5.771V215.165z M209.733,211.868c0.581-0.947,0.886-1.925,0.886-2.932
				c0-1.955-0.763-3.512-2.289-4.642c-1.527-1.13-3.635-1.709-6.26-1.709h-6.535v20.793h5.619v-9.466h0.092l4.549,9.466h5.924
				l-4.488-9.374C208.299,213.517,209.154,212.814,209.733,211.868z M201.124,211.532v-4.947c1.343,0.031,2.29,0.244,2.869,0.672
				c0.58,0.428,0.855,1.1,0.855,2.076C204.849,210.768,203.597,211.501,201.124,211.532z M213.917,205.028
				c-2.046,2.015-3.054,4.58-3.054,7.693c0,3.329,1.008,6.047,3.023,8.092c2.015,2.047,4.641,3.084,7.907,3.084
				c0.948,0,2.017-0.153,3.176-0.488v-4.946c-1.068,0.306-1.984,0.458-2.779,0.458c-1.617,0-2.9-0.551-3.876-1.618
				c-0.979-1.099-1.467-2.564-1.467-4.428c0-1.74,0.488-3.176,1.435-4.274c0.978-1.129,2.167-1.68,3.634-1.68
				c0.946,0,1.954,0.152,3.053,0.458v-4.946c-1.008-0.274-2.137-0.396-3.328-0.396C218.558,202.006,215.963,203.013,213.917,205.028
				z M232.145,218.921v-3.786h4.976v-4.305h-4.976v-3.817h5.771v-4.427h-11.357v20.793h11.388v-4.427h-5.801V218.921z"/>
		</g>
	</g>
</g>
<g>
	<path fill="#72007F" d="M198.072,223.874c0,2.702-1.967,4.891-4.393,4.891H62.324c-2.428,0-4.396-2.189-4.396-4.891v-29.721
		c0-2.702,1.968-4.89,4.396-4.89h131.356c2.426,0,4.393,2.188,4.393,4.89V223.874z"/>
	<path fill="#9B5C8F" d="M198.072,221.845c0,2.702-1.967,4.891-4.393,4.891H62.324c-2.428,0-4.396-2.189-4.396-4.891v-29.721
		c0-2.7,1.968-4.89,4.396-4.89h131.356c2.426,0,4.393,2.189,4.393,4.89V221.845z"/>
	<g>
		<path fill="#FFFFFF" d="M74.693,203.714c0-0.999,0.099-1.929,0.294-2.792c0.196-0.861,0.523-1.61,0.982-2.247
			c0.459-0.637,1.063-1.136,1.814-1.499c0.752-0.361,1.682-0.544,2.792-0.544c1.11,0,2.043,0.183,2.797,0.55
			c0.755,0.366,1.36,0.869,1.815,1.503c0.455,0.638,0.781,1.386,0.977,2.249c0.196,0.863,0.294,1.787,0.294,2.78v6.615
			c0,2.745-0.788,4.777-2.364,6.093c0.222,0.481,0.873,0.722,1.954,0.722v2.452c-2.02,0-3.501-0.748-4.44-2.242
			c-0.163,0.015-0.334,0.028-0.516,0.039c-0.182,0.012-0.376,0.018-0.583,0.018c-1.006,0-1.875-0.171-2.603-0.511
			c-0.729-0.34-1.331-0.818-1.81-1.437c-0.477-0.618-0.831-1.355-1.06-2.208c-0.229-0.854-0.344-1.796-0.344-2.825V203.714z
			 M82.418,202.704c0-0.34-0.026-0.686-0.078-1.037c-0.052-0.352-0.146-0.67-0.283-0.954c-0.137-0.285-0.323-0.517-0.561-0.694
			c-0.237-0.177-0.543-0.266-0.921-0.266c-0.37,0-0.676,0.088-0.916,0.266c-0.24,0.177-0.429,0.409-0.565,0.694
			c-0.138,0.284-0.232,0.603-0.283,0.954c-0.051,0.352-0.078,0.697-0.078,1.037v8.624c0,1.961,0.615,2.942,1.843,2.942
			c1.228,0,1.842-0.981,1.842-2.942V202.704z"/>
		<path fill="#FFFFFF" d="M88.489,197.023h4.04v13.572c0,0.518,0.011,1.001,0.033,1.449c0.022,0.448,0.088,0.836,0.2,1.165
			c0.111,0.328,0.284,0.588,0.521,0.777c0.237,0.189,0.573,0.284,1.009,0.284c0.474,0,0.846-0.112,1.116-0.334
			c0.271-0.221,0.457-0.614,0.561-1.176c0.089-0.511,0.133-1.613,0.133-3.309v-12.429h4.04v12.553c0,0.643-0.022,1.282-0.066,1.919
			c-0.045,0.637-0.137,1.242-0.277,1.821c-0.141,0.576-0.341,1.114-0.6,1.613c-0.259,0.5-0.605,0.931-1.038,1.295
			c-0.433,0.362-0.964,0.647-1.592,0.854c-0.628,0.207-1.38,0.311-2.253,0.311c-0.844,0-1.574-0.099-2.191-0.294
			c-0.618-0.196-1.144-0.468-1.576-0.815c-0.433-0.349-0.783-0.766-1.049-1.25c-0.267-0.484-0.476-1.016-0.627-1.592
			c-0.152-0.576-0.254-1.194-0.306-1.848c-0.051-0.654-0.077-1.326-0.077-2.013V197.023z"/>
		<path fill="#FFFFFF" d="M102.429,197.023h4.04V217h-4.04V197.023z"/>
		<path fill="#FFFFFF" d="M108.589,203.714c0-4.721,1.931-7.082,5.794-7.082c1.036,0,1.91,0.167,2.625,0.5
			c0.714,0.334,1.291,0.796,1.731,1.389c0.439,0.591,0.758,1.294,0.954,2.109c0.196,0.813,0.294,1.702,0.294,2.662v1.721h-3.973
			v-1.842c0-0.428-0.017-0.845-0.05-1.249c-0.033-0.402-0.106-0.761-0.216-1.076c-0.111-0.314-0.276-0.57-0.494-0.765
			c-0.218-0.196-0.509-0.306-0.871-0.328c-1.17,0-1.754,0.984-1.754,2.951v8.624c0,1.961,0.584,2.942,1.754,2.942
			c0.362,0,0.651-0.102,0.866-0.306c0.215-0.204,0.381-0.471,0.499-0.799c0.118-0.329,0.195-0.697,0.233-1.105
			c0.037-0.406,0.055-0.814,0.055-1.22v-2.053h3.951l-0.011,1.687c-0.015,0.592-0.059,1.173-0.133,1.743s-0.196,1.111-0.366,1.625
			c-0.171,0.514-0.394,0.988-0.671,1.421c-0.278,0.433-0.62,0.807-1.027,1.121c-0.407,0.315-0.892,0.56-1.454,0.737
			c-0.562,0.177-1.21,0.267-1.942,0.267c-0.748,0-1.408-0.087-1.981-0.261c-0.573-0.174-1.075-0.417-1.504-0.727
			c-0.429-0.311-0.792-0.683-1.088-1.116c-0.295-0.433-0.534-0.911-0.716-1.437c-0.182-0.526-0.311-1.087-0.388-1.681
			c-0.078-0.597-0.117-1.209-0.117-1.837V203.714z"/>
		<path fill="#FFFFFF" d="M121.875,197.023h4.04v7.58l3.129-7.58h4.517l-4.072,8.179L133.861,217h-4.195l-3.019-9.135l-0.733,1.888
			V217h-4.04V197.023z"/>
		<path fill="#FFFFFF" d="M137.258,197.023h3.829l1.765,12.107l1.954-12.107h3.773L144.629,217h-3.696L137.258,197.023z"/>
		<path fill="#FFFFFF" d="M150.077,197.023h4.041V217h-4.041V197.023z"/>
		<path fill="#FFFFFF" d="M156.493,197.023h8.335v2.774h-4.296v5.439h3.042v2.84h-3.042v6.149h4.296V217h-8.335V197.023z"/>
		<path fill="#FFFFFF" d="M165.528,197.023h3.439l1.244,13.229l1.71-13.229h2.963l1.675,13.151l1.3-13.151h3.451L178.512,217h-3.45
			l-1.676-13.075L171.743,217h-3.453L165.528,197.023z"/>
	</g>
</g>
<path display="none" opacity="0.3" fill-rule="evenodd" clip-rule="evenodd" d="M72.139,151.955
	c0.201-1.975,0.369-3.777,0.569-5.573c0.555-4.979,1.101-9.961,1.694-14.935c0.294-2.455,1.217-4.671,3.054-6.371
	c2.525-2.34,5.504-2.485,8.54-1.328c2.897,1.102,4.378,3.466,4.578,6.475c0.138,2.046-0.104,4.123-0.254,6.179
	c-0.146,1.999-0.395,3.991-0.608,6.101c0.484-0.001,0.75,0,1.017,0c3.58,0,6.783,0.777,8.783,4.16
	c0.124,0.204,0.605,0.305,0.903,0.278c2.194-0.201,4.281,0.109,6.189,1.256c1.403,0.842,2.367,2.065,3.014,3.569
	c0.098,0.225,0.466,0.49,0.693,0.476c5.505-0.34,8.91,3.77,9.02,8.538c0.056,2.446-0.311,4.904-0.524,7.354
	c-0.366,4.172-0.8,8.324-2.109,12.348c-2.373,7.275-6.373,13.506-11.754,18.885c-0.179,0.18-0.334,0.381-0.495,0.578
	c-0.681,0.822-1.542,1.098-2.614,1.102c-8.745,0.033-17.204,0.322-25.996-0.576c-1.081-0.109-1.795-0.719-2.303-1.645
	c-4.714-8.613-8.644-19.816-11.405-29.234c-0.794-2.705-1.734-5.391-2.884-7.961c-2.569-5.736,1.246-10.366,6.43-11.004
	C67.891,150.349,69.991,150.801,72.139,151.955z"/>
<g display="none">
	<path display="inline" fill-rule="evenodd" clip-rule="evenodd" fill="#FFFFFF" d="M77.766,156.765c0,0,0.203-27.196,2.131-29.327
		c1.929-2.13,8.017-3.856,8.931,0.913c0.913,4.77,0.812,24.253,0.812,24.253s-0.711-10.653,5.479-9.842
		c6.191,0.811,5.685,8.625,5.685,8.625s2.942-7.407,6.898-4.768c3.959,2.638,3.959,8.928,3.959,8.928s0.709-7.813,5.377-4.768
		s4.161,10.655,2.537,23.542c-1.623,12.889-7.712,21.107-14.512,20.906c-6.798-0.205-18.672-0.711-20.802-0.711
		s-6.291-5.785-9.742-13.7c-3.45-7.914-6.495-17.353-7.915-19.889c-1.421-2.538,0.812-6.8,3.653-7.206
		C73.098,153.315,77.766,156.765,77.766,156.765z"/>
	<path display="inline" fill-rule="evenodd" clip-rule="evenodd" d="M75.784,151.587c0-1.987-0.015-3.794,0.002-5.602
		c0.048-5.011,0.086-10.021,0.173-15.032c0.044-2.472,0.738-4.769,2.393-6.647c2.276-2.582,5.225-3.028,8.362-2.185
		c2.991,0.802,4.707,3.003,5.21,5.979c0.343,2.021,0.315,4.111,0.372,6.171c0.059,2.005,0.013,4.012,0.013,6.13
		c0.48-0.049,0.745-0.074,1.01-0.102c3.562-0.362,6.829,0.087,9.16,3.248c0.142,0.192,0.633,0.242,0.928,0.186
		c2.163-0.421,4.27-0.323,6.285,0.624c1.481,0.694,2.564,1.815,3.359,3.244c0.12,0.214,0.513,0.443,0.737,0.405
		c5.441-0.895,9.246,2.848,9.837,7.581c0.303,2.428,0.188,4.91,0.223,7.369c0.06,4.188,0.047,8.363-0.848,12.498
		c-1.624,7.477-4.973,14.082-9.782,19.977c-0.159,0.197-0.292,0.414-0.435,0.627c-0.594,0.887-1.418,1.357-2.489,1.357
		c-8.836,0-17.674-0.006-26.511-0.008c-1.087,0-1.86-0.533-2.458-1.404c-5.562-8.092-10.014-16.77-13.715-25.861
		c-1.063-2.609-2.271-5.188-3.675-7.626c-3.137-5.448,0.19-10.438,5.283-11.599C71.396,150.42,73.531,150.657,75.784,151.587z
		 M81.773,144.627c-0.102,0-0.204,0-0.306,0.001c0,3.68,0.007,7.359-0.004,11.039c-0.003,1.244,0.029,2.498-0.117,3.726
		c-0.154,1.296-1.149,2.191-2.333,2.346c-1.397,0.186-2.486-0.425-3.122-1.664c-0.383-0.749-0.771-1.524-1.305-2.163
		c-1.287-1.534-3.415-1.894-5.062-0.958c-1.076,0.611-1.271,1.286-0.692,2.382c0.66,1.249,1.384,2.469,1.963,3.754
		c2.03,4.507,3.985,9.048,6.013,13.557c2.211,4.916,5.037,9.475,8.096,13.901c0.57,0.824,1.126,1.131,2.113,1.121
		c6.381-0.049,12.763-0.104,19.142,0.012c1.749,0.031,2.862-0.434,3.942-1.848c4.205-5.494,6.974-11.609,7.628-18.487
		c0.443-4.66,0.317-9.38,0.326-14.073c0.002-0.897-0.442-1.858-0.886-2.68c-0.396-0.73-1.227-1.056-2.06-0.855
		c-0.848,0.206-0.969,1.04-1.098,1.752c-0.122,0.694-0.131,1.407-0.186,2.113c-0.117,1.533-1.388,2.646-2.988,2.611
		c-1.475-0.032-2.696-1.218-2.713-2.702c-0.01-0.902,0.036-1.813,0.143-2.707c0.164-1.389,0.283-2.769-0.184-4.114
		c-0.397-1.142-1.66-1.656-3.207-1.36c-0.819,0.157-1.231,0.834-1.227,2.05c0.005,1.161,0.052,2.322,0.026,3.483
		c-0.03,1.458-1.223,2.646-2.709,2.755c-1.363,0.103-2.877-0.989-2.96-2.377c-0.133-2.252-0.042-4.517-0.117-6.774
		c-0.021-0.64-0.09-1.523-0.493-1.857c-1.006-0.826-2.317-0.93-3.526-0.447c-1.019,0.409-1.226,1.421-1.214,2.422
		c0.021,1.699,0.112,3.395,0.133,5.093c0.026,1.908-1.418,3.291-3.214,3.117c-1.476-0.143-2.529-1.297-2.604-3.059
		c-0.091-2.171-0.056-4.348-0.103-6.523c-0.085-3.906-0.181-7.811-0.294-11.716c-0.062-2.034-0.108-4.072-0.288-6.099
		c-0.107-1.214-0.642-1.688-1.569-1.814c-1.09-0.148-2.023,0.26-2.448,1.25c-0.28,0.659-0.471,1.409-0.477,2.12
		C81.753,135.513,81.773,140.071,81.773,144.627z"/>
</g>
<polygon display="none" opacity="0.3" points="82.489,109.44 113.424,51.013 113.424,179.217 "/>
<g>
	<g>
		<path opacity="0.2" d="M189.054,30.688c-2.44,0-4.417,1.917-4.551,4.325H69.866v144.216h119.046V39.831
			c0.048,0.001,0.093,0.014,0.142,0.014c2.531,0,4.58-2.05,4.58-4.579C193.634,32.738,191.585,30.688,189.054,30.688z"/>
		<rect x="62.366" y="21.013" fill="#FFFFFF" width="119.046" height="150.222"/>
		<rect x="76.818" y="35.893" fill="#CCCCCC" width="90.143" height="50.366"/>
		<rect x="76.818" y="93.413" fill="#CCCCCC" width="90.143" height="3.72"/>
		<rect x="76.818" y="99.279" fill="#CCCCCC" width="46.358" height="3.721"/>
		<rect x="76.818" y="117.167" fill="#CCCCCC" width="90.143" height="3.72"/>
		<rect x="76.818" y="124.035" fill="#CCCCCC" width="90.143" height="3.72"/>
		<rect x="76.818" y="130.903" fill="#CCCCCC" width="68.68" height="3.721"/>
		<rect x="76.818" y="111.301" fill="#CCCCCC" width="4.292" height="3.719"/>
		<rect x="84.064" y="111.301" fill="#CCCCCC" width="24.141" height="3.719"/>
		<g>
			<circle fill="#4D4D4D" cx="181.221" cy="21.35" r="4.578"/>
			<path fill="#FFFFFF" d="M181.911,21.35l1.416-1.416c0.19-0.191,0.19-0.5,0-0.691c-0.191-0.19-0.499-0.19-0.689,0l-1.418,1.417
				l-1.416-1.417c-0.189-0.19-0.498-0.19-0.689,0c-0.189,0.191-0.189,0.499,0,0.691l1.416,1.416l-1.416,1.416
				c-0.189,0.191-0.189,0.5,0,0.69c0.096,0.096,0.222,0.143,0.345,0.143c0.127,0,0.251-0.047,0.345-0.143l1.416-1.417l1.418,1.417
				c0.096,0.096,0.219,0.143,0.344,0.143c0.126,0,0.251-0.047,0.346-0.143c0.19-0.19,0.19-0.499,0-0.69L181.911,21.35z"/>
		</g>
		<rect x="76.329" y="143.279" fill="#CCCCCC" width="15.667" height="15.667"/>
		<rect x="96.662" y="143.279" fill="#CCCCCC" width="15.667" height="15.667"/>
		<rect x="117.662" y="143.279" fill="#CCCCCC" width="15.667" height="15.667"/>
	</g>
	<path fill-rule="evenodd" clip-rule="evenodd" fill="#FFFFFF" d="M137.887,76.373h-28.391c-1.255,0-2.272-1.014-2.272-2.266V54.853
		c0-1.251,1.018-2.265,2.272-2.265h2.271v-3.398l9.085,0.071l-0.003,3.347l17.038-0.019c1.255,0,2.273,1.014,2.273,2.265v19.255
		C140.159,75.359,139.142,76.373,137.887,76.373z M118.582,51.455h-4.544v3.398h4.544V51.455z M119.717,57.07
		c-4.391,0-7.95,3.55-7.95,7.929c0,4.379,3.56,7.928,7.95,7.928s7.949-3.549,7.949-7.928C127.666,60.62,124.108,57.07,119.717,57.07
		z M135.049,55.442c-1.255,0-2.271,1.014-2.271,2.265c0,1.251,1.017,2.265,2.271,2.265c1.254,0,2.27-1.014,2.27-2.265
		C137.32,56.457,136.303,55.442,135.049,55.442z M119.717,70.285c-2.822,0-5.11-2.282-5.11-5.097c0-2.815,2.288-5.096,5.11-5.096
		c2.822,0,5.111,2.282,5.111,5.096C124.828,68.003,122.539,70.285,119.717,70.285z"/>
</g>
<path display="none" fill="#9B5C8F" d="M193.917,134.099c0.366,1.052,0.269,1.223-0.862,1.466c-1.991,0.427-3.983,0.848-6.074,1.293
	c1.364,1.071,2.725,2.006,3.934,3.109c11.171,10.19,15.024,22.662,11.52,37.376c-0.867,3.64-2.438,6.998-4.416,10.163
	c-0.25,0.4-0.706,0.672-1.066,1.004c-0.219-0.107-0.438-0.215-0.656-0.322c0.18-0.614,0.237-1.304,0.558-1.832
	c9.374-15.414,5.93-34.902-8.201-46.208c-0.826-0.661-1.712-1.247-2.781-2.021c0.42,2.021,0.788,3.789,1.155,5.558
	c0.062,0.298,0.236,0.636,0.152,0.886c-0.126,0.378-0.434,0.694-0.665,1.037c-0.287-0.24-0.765-0.436-0.832-0.727
	c-0.606-2.639-1.137-5.296-1.7-7.945c-0.158-0.745,0.096-1.124,0.866-1.279c2.863-0.576,5.718-1.195,8.575-1.798
	C193.589,133.938,193.753,134.018,193.917,134.099z"/>
<path fill="#9B5C8F" d="M62.663,198.682c-0.849,0.219-1.696,0.443-2.546,0.657c-2.405,0.605-4.851,0.635-7.297,0.429
	c-1.884-0.159-3.711-0.636-5.486-1.295c-2.931-1.089-5.527-2.696-7.794-4.869c-2.471-2.369-4.32-5.121-5.563-8.308
	c-1.211-3.105-1.677-6.319-1.483-9.625c0.114-1.939,0.527-3.828,1.12-5.691c0.91-2.859,2.381-5.397,4.295-7.661
	c1.716-2.031,3.767-3.709,6.103-5.014c0.819-0.457,1.621-0.949,2.449-1.389c0.335-0.178,0.263-0.368,0.128-0.602
	c-0.881-1.526-1.765-3.05-2.643-4.578c-0.1-0.173-0.172-0.363-0.294-0.626c5.91,1.622,11.734,3.22,17.601,4.83
	c-1.61,5.873-3.2,11.676-4.835,17.644c-1.115-1.953-2.143-3.752-3.197-5.598c-1.03,0.576-2.04,1.11-3.019,1.696
	c-1.744,1.044-3.277,2.34-4.532,3.95c-1.409,1.808-2.425,3.792-3.004,6.031c-0.49,1.895-0.649,3.784-0.461,5.717
	c0.292,2.988,1.348,5.677,3.115,8.104c1.381,1.897,3.093,3.421,5.136,4.544c2.058,1.13,4.26,1.831,6.627,2.013
	c1.579,0.122,3.129,0.01,4.677-0.266c0.294-0.052,0.58-0.151,0.87-0.229C62.639,198.592,62.651,198.637,62.663,198.682z"/>
</svg>
